Coordinates
version=1
nRows=13
nColumns=40
inDegrees=yes

Units are S.I. units (second, meters, Newtons, ...)
Angles are in degrees.

endheader
time	pelvis_tilt	pelvis_list	pelvis_rotation	pelvis_tx	pelvis_ty	pelvis_tz	hip_flexion_r	hip_adduction_r	hip_rotation_r	knee_angle_r	knee_angle_r_beta	ankle_angle_r	subtalar_angle_r	mtp_angle_r	hip_flexion_l	hip_adduction_l	hip_rotation_l	knee_angle_l	knee_angle_l_beta	ankle_angle_l	subtalar_angle_l	mtp_angle_l	lumbar_extension	lumbar_bending	lumbar_rotation	arm_flex_r	arm_add_r	arm_rot_r	elbow_flex_r	pro_sup_r	wrist_flex_r	wrist_dev_r	arm_flex_l	arm_add_l	arm_rot_l	elbow_flex_l	pro_sup_l	wrist_flex_l	wrist_dev_l
      1.58000000	      2.20684262	      1.20399676	     -6.90709671	      0.55396755	      0.86851115	     -1.01435623	    -14.19077484	     -3.32933904	     -7.95861059	    -28.51709517	     -0.49771720	      7.84211306	      3.62883753	     -7.28710667	     24.87629353	      0.81703196	     11.98953012	    -19.98700993	     -0.34883913	     -6.95402767	      1.33067431	     -5.65500568	     -7.18145272	     -0.96254819	      6.26628999	     18.38965027	    -11.62521574	     10.18548680	     26.46165104	     89.95437384	      0.00000000	      0.00000000	     -9.27115523	      7.57194977	    -12.49907464	      6.38066285	     89.95437384	      0.00000000	      0.00000000
      1.59000000	      2.19095999	      1.80879846	     -6.82381809	      0.56947842	      0.86872563	     -1.01544660	    -13.90311105	     -4.21450198	     -8.00407153	    -30.38850013	     -0.53037938	      5.45855693	      2.67923536	     -6.75160427	     24.97629351	      0.18682934	     12.21333964	    -21.62000682	     -0.37734030	     -6.11017318	      2.17589880	     -5.53807742	     -6.92929329	     -1.60493515	      6.02952941	     17.78641916	    -11.38976176	      9.91385020	     26.17387679	     89.95437384	      0.00000000	      0.00000000	     -9.85308033	      7.63074993	    -12.83690337	      6.03259338	     89.95437384	      0.00000000	      0.00000000
      1.60000000	      1.67829665	      2.42603077	     -6.64932784	      0.58451375	      0.86852811	     -1.01692735	    -12.63324277	     -4.96866791	     -7.84180681	    -32.87964550	     -0.57385807	      2.55773896	      0.62047963	     -5.74960103	     25.55216238	     -0.79174884	     11.20093456	    -23.30260824	     -0.40670724	     -4.46699179	      4.41948784	     -5.13704370	     -6.16451455	     -2.15440500	      5.78314950	     17.05963062	    -11.08136972	      8.97285811	     25.86805208	     89.95437384	      0.00000000	      0.00000000	    -10.42231445	      7.73871419	    -14.02027922	      5.88198056	     89.95437384	      0.00000000	      0.00000000
      1.61000000	      1.85221954	      2.92148090	     -6.43989941	      0.59993511	      0.86969451	     -1.01829177	    -11.99863158	     -5.80569313	     -8.24078424	    -35.38654442	     -0.61761171	     -0.80490760	     -0.21266351	     -5.04457440	     25.17167511	     -1.64994835	     10.59196536	    -24.86252086	     -0.43393285	     -3.11598050	      3.89860328	     -5.19929626	     -6.17741520	     -2.66384800	      5.44848366	     16.44640445	    -10.91117934	      8.98529816	     25.34562461	     89.95437384	      0.00000000	      0.00000000	    -10.67080578	      7.75561202	    -14.41788247	      5.55872789	     89.95437384	      0.00000000	      0.00000000
      1.62000000	      1.77889893	      3.51593681	     -6.23350954	      0.61519609	      0.87075515	     -1.01967665	    -10.78928672	     -6.69620052	     -8.53052918	    -38.06745343	     -0.66440240	     -5.28631343	     -1.90527032	     -3.95642867	     24.92251872	     -2.59446045	     10.08895723	    -26.09718032	     -0.45548172	     -1.78746634	      4.03742434	     -5.05607553	     -5.91226734	     -3.25869071	      5.08062700	     15.74157707	    -10.70530688	      9.08102286	     24.85700091	     89.95437384	      0.00000000	      0.00000000	    -10.94322867	      7.80986280	    -14.94707264	      5.40529843	     89.95437384	      0.00000000	      0.00000000
      1.63000000	      1.66399375	      3.88373092	     -5.93923994	      0.62978640	      0.87209433	     -1.02108241	     -9.31671354	     -7.03984008	     -8.24325587	    -40.72403917	     -0.71076857	    -10.78111450	     -5.89760319	     -1.50545125	     24.49695311	     -3.54325075	      8.72651238	    -26.91948938	     -0.46983372	     -0.40044156	      5.68411373	     -4.21900309	     -5.71224818	     -3.58006771	      4.68154303	     15.09510826	    -10.57240665	      9.39578519	     24.26649290	     89.95437384	      0.00000000	      0.00000000	    -11.03572367	      7.94496483	    -16.26988801	      5.45348205	     89.95437384	      0.00000000	      0.00000000
      1.64000000	      1.77983638	      4.34189550	     -5.89612831	      0.64436136	      0.87379844	     -1.02216277	     -7.88594596	     -7.66131099	     -7.81734362	    -43.44305816	     -0.75822440	    -16.05225717	     -7.81968655	      0.28033629	     23.55003626	     -4.27099925	      8.58872306	    -27.32775090	     -0.47695923	      0.69252884	      5.35148074	     -3.86619017	     -5.75892416	     -4.03949535	      4.41404146	     14.49754496	    -10.41518986	      9.90120916	     23.67829546	     89.95437384	      0.00000000	      0.00000000	    -11.05298382	      8.01939071	    -16.95902659	      5.59038545	     89.95437384	      0.00000000	      0.00000000
      1.65000000	      1.74466758	      4.52179608	     -5.83681166	      0.65820252	      0.87539496	     -1.02294275	     -6.10524316	     -7.64908353	     -6.66762651	    -46.32309525	     -0.80849053	    -20.03493126	    -10.05960294	      1.98039877	     22.67940429	     -4.53308451	      8.86862732	    -27.58470403	     -0.48144391	      1.68684903	      4.60240461	     -3.45841232	     -5.74406969	     -4.19797167	      4.10133933	     14.05885101	    -10.26981892	     10.80186383	     22.85575702	     89.95437384	      0.00000000	      0.00000000	    -10.87929443	      8.09164499	    -17.72139268	      5.71539791	     89.95437384	      0.00000000	      0.00000000
      1.66000000	      1.62580694	      4.75625695	     -5.81192333	      0.67153751	      0.87674931	     -1.02359141	     -3.96860444	     -7.74445960	     -5.70778454	    -49.57442806	     -0.86523699	    -22.47574120	    -11.45087192	      2.96544726	     21.78812175	     -4.70501705	      9.67818372	    -27.54832293	     -0.48080894	      2.39013395	      3.22337249	     -3.35170756	     -5.67714240	     -4.41007058	      3.76656084	     13.66177081	    -10.09684818	     11.86976560	     22.05270332	     89.95437384	      0.00000000	      0.00000000	    -10.68312536	      8.22124491	    -18.24850462	      6.11141402	     89.95437384	      0.00000000	      0.00000000
      1.67000000	      1.37695106	      4.95255653	     -5.85507907	      0.68449449	      0.87781106	     -1.02399552	     -1.58427485	     -7.75556852	     -4.93632591	    -52.87788847	     -0.92289326	    -22.52039180	    -13.39429435	      3.87089551	     20.96939269	     -4.78441151	     10.53028771	    -27.35246952	     -0.47739065	      3.03855941	      1.67473953	     -3.31086976	     -5.46787241	     -4.57286311	      3.44104445	     13.35161057	     -9.86714576	     12.92007062	     21.15999088	     89.95437384	      0.00000000	      0.00000000	    -10.38937999	      8.35576566	    -18.89839096	      6.48709360	     89.95437384	      0.00000000	      0.00000000
      1.68000000	      1.42821551	      5.10497181	     -5.77620526	      0.69760605	      0.87935639	     -1.02458801	      0.34117553	     -7.78639319	     -4.56500405	    -55.82263068	     -0.97428870	    -20.71862993	    -14.56798928	      4.08015680	     19.65126038	     -5.01467308	     10.98450072	    -26.85679733	     -0.46873954	      3.82078386	      0.50032656	     -3.43325773	     -5.59484356	     -4.68404980	      2.90656186	     13.09616471	     -9.57733240	     13.76966618	     20.13453971	     89.95437384	      0.00000000	      0.00000000	     -9.97188785	      8.45436286	    -19.34513384	      6.83928248	     89.95437384	      0.00000000	      0.00000000
      1.69000000	      1.10022409	      5.20252879	     -6.09791841	      0.71014215	      0.88015031	     -1.02454982	      3.03764083	     -7.75185817	     -3.99033855	    -58.93479153	     -1.02860616	    -18.03813021	    -15.22385435	      5.79900233	     18.94310123	     -4.86061129	     12.09893085	    -26.70780946	     -0.46613921	      4.16091947	     -1.38996376	     -3.44957493	     -5.29532053	     -4.71224076	      2.85652581	     12.67383916	     -9.64680774	     16.10002505	     19.54233263	     89.95437384	      0.00000000	      0.00000000	     -9.56088540	      8.68471996	    -20.81973192	      7.49153756	     89.95437384	      0.00000000	      0.00000000
      1.70000000	      1.09753255	      5.34795368	     -6.23206941	      0.72290655	      0.88161244	     -1.02485692	      5.18392631	     -7.79951815	     -3.70340333	    -61.31810603	     -1.07020284	    -15.63304713	    -15.65132291	      7.00283176	     17.69266362	     -5.11712940	     12.48530740	    -26.13018120	     -0.45605770	      4.67719294	     -2.08210822	     -3.45645279	     -5.34413587	     -4.78265208	      2.54678851	     12.33320293	     -9.48713344	     17.42860308	     18.72590787	     89.95437384	      0.00000000	      0.00000000	     -8.95790414	      8.88316453	    -21.88025071	      7.98046696	     89.95437384	      0.00000000	      0.00000000
